<?xml version="1.0" encoding="utf-8"?>
<!-- Generator: Adobe Illustrator 16.0.0, SVG Export Plug-In . SVG Version: 6.00 Build 0)  -->
<!DOCTYPE svg PUBLIC "-//W3C//DTD SVG 1.1//EN" "http://www.w3.org/Graphics/SVG/1.1/DTD/svg11.dtd">
<svg version="1.1" xmlns="http://www.w3.org/2000/svg" xmlns:xlink="http://www.w3.org/1999/xlink" x="0px" y="0px" width="30px"
	 height="30px" viewBox="0 0 30 30" enable-background="new 0 0 30 30" xml:space="preserve">
<g id="animals">
</g>
<g id="book">
	<g id="Glyph">
		<path fill="#030104" d="M24.746,2.677V0.999H7.894c-1.943,0-3.524,1.584-3.524,3.53v18.789c0,1.589,0.438,2.799,1.303,3.598
			c0.922,0.854,2.01,0.938,2.381,0.938c0.069,0,0.115-0.003,0.129-0.004h17.007V6.381h-1.142c-0.301-0.386-1.009-1.624,0.042-3.704
			H24.746z M22.151,6.381H7.894c-1.018,0-1.846-0.831-1.846-1.853c0-1.021,0.827-1.852,1.846-1.852h14.363
			C21.648,4.271,21.814,5.522,22.151,6.381z"/>
	</g>
</g>
<g id="photography">
</g>
<g id="technology">
</g>
<g id="star-b">
</g>
<g id="experience">
</g>
<g id="mail">
</g>
<g id="star">
</g>
<g id="student">
</g>
<g id="telephone">
</g>
<g id="web">
</g>
</svg>
