<?xml version="1.0" encoding="utf-8"?>
<!-- Generator: Adobe Illustrator 16.0.0, SVG Export Plug-In . SVG Version: 6.00 Build 0)  -->
<!DOCTYPE svg PUBLIC "-//W3C//DTD SVG 1.1//EN" "http://www.w3.org/Graphics/SVG/1.1/DTD/svg11.dtd">
<svg version="1.1" xmlns="http://www.w3.org/2000/svg" xmlns:xlink="http://www.w3.org/1999/xlink" x="0px" y="0px" width="30px"
	 height="30px" viewBox="0 0 30 30" enable-background="new 0 0 30 30" xml:space="preserve">
<g id="star-b">
	<g>
		<path fill="#010002" d="M24.687,29.117L15,22.661l-9.688,6.456l3.232-10.985l-9.085-7.14h11.66L15,0l3.88,10.992h11.66
			l-9.085,7.14L24.687,29.117z M1.628,11.742l7.78,6.114l-2.793,9.491L15,21.761l8.384,5.587l-2.792-9.491l7.78-6.114H18.349
			L15,2.254l-3.349,9.488H1.628z"/>
	</g>
</g>
<g id="experience">
	<g id="miu">
		<g id="Artboard-1" transform="translate(-539.000000, -335.000000)">
			<g id="slice" transform="translate(215.000000, 119.000000)">
			</g>
			<path id="business-suitcase-glyph" fill="#030104" d="M256,350h1.026H265v8.889c0,1.111-1.1,1.111-1.1,1.111h-19.8
				c0,0-1.1,0-1.1-1.111V350h8.005H252v0.991c0,0.558,0.443,1.009,1.009,1.009h1.981c0.559,0,1.01-0.443,1.01-1.009V350L256,350z
				 M256,349h1h8v-3.864c0-1.136-1.1-1.136-1.1-1.136h-19.8c0,0-1.1,0-1.1,1.136V349h8h1c0.005-0.562,0.455-1,1.009-1h1.981
				C255.553,348,255.995,348.447,256,349L256,349z M256.055,341.979h-4.043V344H251v-1.75c0-1.25,1.154-1.25,1.154-1.25h3.692
				c0,0,1.154,0,1.154,1.25V344h-0.945V341.979z M253,349v2h2v-2H253z"/>
		</g>
	</g>
</g>
<g id="mail">
	<path fill="#030104" d="M-234.979,19.424l-3.428-3.001l-9.799,8.401c0.354,0.331,0.837,0.536,1.365,0.536h23.721
		c0.528,0,1.007-0.207,1.363-0.536l-9.795-8.401L-234.979,19.424z"/>
	<path fill="#030104" d="M-221.752,6.108c-0.354-0.333-0.835-0.536-1.365-0.536h-23.721c-0.528,0-1.007,0.207-1.363,0.54
		l13.223,11.333L-221.752,6.108z"/>
	<path fill="#030104" d="M-248.831,7.309v16.442l9.563-8.128L-248.831,7.309z"/>
	<path fill="#030104" d="M-230.689,15.623l9.563,8.128V7.303L-230.689,15.623z"/>
</g>
<g id="star">
	<path stroke="#010002" stroke-width="0.75" stroke-miterlimit="10" d="M-185,1l3.614,10.24h10.842l-8.433,6.627l3.012,10.238
		L-185,22.084l-9.036,6.021l3.013-10.238l-8.433-6.627h10.842L-185,1z"/>
</g>
<g id="student">
	<polygon fill="#030104" points="-135.5,6.125 -146.959,12.375 -135.5,18.625 -124.041,12.375 	"/>
	<polygon fill="#030104" points="-128.209,16.334 -135.5,20.709 -142.791,16.334 -142.791,20.916 -135.5,24.875 -128.209,20.916 	
		"/>
	<rect x="-126.125" y="12.375" fill="#030104" width="2.084" height="8.334"/>
</g>
<g id="telephone">
	<path fill="#030104" d="M-76.586,17.954c-0.506-0.526-1.117-0.81-1.764-0.81c-0.643,0-1.258,0.277-1.785,0.805l-1.649,1.645
		c-0.136-0.074-0.271-0.142-0.401-0.21c-0.188-0.094-0.365-0.183-0.518-0.276c-1.545-0.981-2.949-2.26-4.295-3.915
		c-0.652-0.825-1.091-1.519-1.409-2.223c0.429-0.391,0.825-0.799,1.212-1.19c0.146-0.146,0.291-0.297,0.438-0.444
		c1.096-1.096,1.096-2.515,0-3.611L-88.184,6.3c-0.162-0.162-0.328-0.329-0.484-0.496c-0.313-0.324-0.643-0.658-0.98-0.971
		c-0.506-0.501-1.113-0.767-1.748-0.767c-0.637,0-1.254,0.266-1.774,0.767c-0.005,0.005-0.005,0.005-0.011,0.01l-1.773,1.79
		c-0.668,0.668-1.049,1.482-1.133,2.427c-0.125,1.524,0.324,2.943,0.668,3.872c0.845,2.281,2.107,4.394,3.992,6.659
		c2.285,2.729,5.035,4.886,8.178,6.404c1.2,0.569,2.803,1.241,4.593,1.356c0.11,0.006,0.224,0.01,0.329,0.01
		c1.206,0,2.219-0.432,3.012-1.293c0.004-0.01,0.016-0.016,0.021-0.026c0.271-0.329,0.585-0.626,0.913-0.944
		c0.224-0.215,0.453-0.438,0.678-0.674c0.518-0.537,0.788-1.164,0.788-1.806c0-0.647-0.276-1.269-0.804-1.79l-2.865-2.876V17.954z"
		/>
</g>
<g id="web">
	<path fill="#030104" d="M-20.575,14.036C-21.05,6.818-26.817,1.048-34.037,0.574V0.541h-1.927v0.033
		c-7.218,0.474-12.987,6.244-13.463,13.462h-0.032v1.929h0.032c0.476,7.217,6.245,12.985,13.463,13.46v0.034h1.927v-0.034
		c7.22-0.475,12.987-6.243,13.462-13.46h0.034v-1.929H-20.575z M-40.408,3.693c-0.931,1.238-1.704,2.79-2.268,4.56h-2.889
		C-44.307,6.291-42.521,4.705-40.408,3.693z M-46.572,10.181h3.389c-0.258,1.218-0.422,2.512-0.474,3.856h-3.838
		C-47.393,12.68-47.073,11.382-46.572,10.181z M-47.495,15.965h3.838c0.052,1.345,0.216,2.637,0.474,3.856h-3.389
		C-47.073,18.62-47.393,17.321-47.495,15.965z M-45.564,21.748h2.887c0.563,1.77,1.335,3.322,2.27,4.56
		C-42.521,25.296-44.307,23.711-45.564,21.748z M-35.964,27.409c-1.982-0.531-3.689-2.659-4.725-5.661h4.725V27.409z M-35.964,19.82
		h-5.266c-0.271-1.201-0.443-2.499-0.499-3.855h5.765V19.82L-35.964,19.82z M-35.964,14.036h-5.765
		c0.056-1.357,0.228-2.655,0.499-3.856h5.266V14.036L-35.964,14.036z M-35.964,8.252h-4.725c1.035-3.002,2.742-5.13,4.725-5.658
		V8.252z M-24.437,8.252h-2.884c-0.565-1.77-1.337-3.322-2.272-4.56C-27.481,4.705-25.693,6.292-24.437,8.252L-24.437,8.252z
		 M-34.037,2.594c1.98,0.529,3.689,2.657,4.725,5.658h-4.725V2.594z M-34.037,10.181h5.264c0.273,1.201,0.442,2.499,0.501,3.856
		h-5.765V10.181z M-34.037,15.965h5.765c-0.055,1.356-0.228,2.655-0.501,3.856h-5.264V15.965z M-34.037,27.409v-5.661h4.725
		C-30.348,24.751-32.057,26.879-34.037,27.409z M-29.593,26.308c0.931-1.239,1.706-2.79,2.271-4.56h2.883
		C-25.695,23.711-27.483,25.296-29.593,26.308L-29.593,26.308z M-23.429,19.82h-3.389c0.258-1.219,0.422-2.513,0.474-3.855h3.837
		C-22.608,17.321-22.928,18.619-23.429,19.82z M-26.344,14.036c-0.052-1.344-0.216-2.637-0.474-3.856h3.389
		c0.501,1.201,0.82,2.499,0.923,3.856H-26.344z"/>
</g>
</svg>
