<?xml version="1.0" encoding="utf-8"?>
<!-- Generator: Adobe Illustrator 16.0.0, SVG Export Plug-In . SVG Version: 6.00 Build 0)  -->
<!DOCTYPE svg PUBLIC "-//W3C//DTD SVG 1.1//EN" "http://www.w3.org/Graphics/SVG/1.1/DTD/svg11.dtd">
<svg version="1.1" xmlns="http://www.w3.org/2000/svg" xmlns:xlink="http://www.w3.org/1999/xlink" x="0px" y="0px" width="30px"
	 height="30px" viewBox="0 0 30 30" enable-background="new 0 0 30 30" xml:space="preserve">
<g id="animals">
</g>
<g id="book">
</g>
<g id="photography">
</g>
<g id="technology">
</g>
<g id="star-b">
</g>
<g id="experience">
</g>
<g id="mail">
</g>
<g id="star">
</g>
<g id="student">
</g>
<g id="telephone">
	<path fill="#030104" d="M23.414,17.954c-0.506-0.526-1.117-0.81-1.764-0.81c-0.643,0-1.258,0.277-1.785,0.805l-1.649,1.645
		c-0.136-0.074-0.271-0.142-0.401-0.21c-0.188-0.094-0.365-0.183-0.518-0.276c-1.545-0.981-2.949-2.26-4.295-3.915
		c-0.652-0.825-1.091-1.519-1.409-2.223c0.429-0.391,0.825-0.799,1.212-1.19c0.146-0.146,0.291-0.297,0.438-0.444
		c1.096-1.096,1.096-2.515,0-3.611L11.816,6.3c-0.162-0.162-0.328-0.329-0.484-0.496c-0.313-0.324-0.643-0.658-0.98-0.971
		C9.846,4.332,9.238,4.066,8.604,4.066c-0.637,0-1.254,0.266-1.774,0.767c-0.005,0.005-0.005,0.005-0.011,0.01l-1.773,1.79
		C4.377,7.301,3.996,8.115,3.912,9.06c-0.125,1.524,0.324,2.943,0.668,3.872c0.845,2.281,2.107,4.394,3.992,6.659
		c2.285,2.729,5.035,4.886,8.178,6.404c1.2,0.569,2.803,1.241,4.593,1.356c0.11,0.006,0.224,0.01,0.329,0.01
		c1.206,0,2.219-0.432,3.012-1.293c0.004-0.01,0.016-0.016,0.021-0.026c0.271-0.329,0.585-0.626,0.913-0.944
		c0.224-0.215,0.453-0.438,0.678-0.674c0.518-0.537,0.788-1.164,0.788-1.806c0-0.647-0.276-1.269-0.804-1.79l-2.865-2.876V17.954z"
		/>
</g>
<g id="web">
</g>
</svg>
