<?xml version="1.0" encoding="utf-8"?>
<!-- Generator: Adobe Illustrator 16.0.0, SVG Export Plug-In . SVG Version: 6.00 Build 0)  -->
<!DOCTYPE svg PUBLIC "-//W3C//DTD SVG 1.1//EN" "http://www.w3.org/Graphics/SVG/1.1/DTD/svg11.dtd">
<svg version="1.1" xmlns="http://www.w3.org/2000/svg" xmlns:xlink="http://www.w3.org/1999/xlink" x="0px" y="0px" width="30px"
	 height="30px" viewBox="0 0 30 30" enable-background="new 0 0 30 30" xml:space="preserve">
<g id="animals">
</g>
<g id="book">
</g>
<g id="photography">
	<g>
		<path fill="#030104" d="M16,15.308c-1.398,0-2.539,1.139-2.539,2.538c0,1.4,1.141,2.541,2.539,2.541s2.541-1.14,2.541-2.541
			C18.541,16.447,17.398,15.308,16,15.308"/>
		<path fill="#030104" d="M24.861,9.537h-3.15c-0.008-0.031-0.012-0.063-0.027-0.095l-0.289-0.729
			c-0.43-1.07-1.723-1.943-2.875-1.943H13.48c-1.152,0-2.445,0.874-2.873,1.943l-0.291,0.729c-0.014,0.033-0.018,0.064-0.027,0.095
			H7.141C5.416,9.537,4,10.952,4,12.678v9.412c0,1.729,1.416,3.141,3.141,3.141h17.721c1.726,0,3.14-1.414,3.14-3.141v-9.412
			C28,10.952,26.586,9.537,24.861,9.537z M16,22.691c-2.672,0-4.844-2.174-4.844-4.846C11.156,15.173,13.328,13,16,13
			s4.846,2.174,4.846,4.846S18.672,22.691,16,22.691z M25.855,13.544h-3.094v-1.547h3.094V13.544z"/>
	</g>
</g>
<g id="technology">
</g>
<g id="star-b">
</g>
<g id="experience">
</g>
<g id="mail">
</g>
<g id="star">
</g>
<g id="student">
</g>
<g id="telephone">
</g>
<g id="web">
</g>
</svg>
