<?xml version="1.0" encoding="utf-8"?>
<!-- Generator: Adobe Illustrator 16.0.0, SVG Export Plug-In . SVG Version: 6.00 Build 0)  -->
<!DOCTYPE svg PUBLIC "-//W3C//DTD SVG 1.1//EN" "http://www.w3.org/Graphics/SVG/1.1/DTD/svg11.dtd">
<svg version="1.1" xmlns="http://www.w3.org/2000/svg" xmlns:xlink="http://www.w3.org/1999/xlink" x="0px" y="0px" width="30px"
	 height="30px" viewBox="0 0 30 30" enable-background="new 0 0 30 30" xml:space="preserve">
<g id="animals">
</g>
<g id="book">
</g>
<g id="photography">
</g>
<g id="technology">
</g>
<g id="star-b">
</g>
<g id="experience">
</g>
<g id="mail">
	<path fill="#030104" d="M15.021,19.424l-3.428-3.001l-9.799,8.401c0.354,0.331,0.837,0.536,1.365,0.536h23.721
		c0.528,0,1.007-0.207,1.363-0.536l-9.795-8.401L15.021,19.424z"/>
	<path fill="#030104" d="M28.248,6.108c-0.354-0.333-0.835-0.536-1.365-0.536H3.162c-0.528,0-1.007,0.207-1.363,0.54l13.223,11.333
		L28.248,6.108z"/>
	<path fill="#030104" d="M1.169,7.309v16.442l9.563-8.128L1.169,7.309z"/>
	<path fill="#030104" d="M19.311,15.623l9.563,8.128V7.303L19.311,15.623z"/>
</g>
<g id="star">
</g>
<g id="student">
</g>
<g id="telephone">
</g>
<g id="web">
</g>
</svg>
