<?xml version="1.0" encoding="utf-8"?>
<!-- Generator: Adobe Illustrator 16.0.0, SVG Export Plug-In . SVG Version: 6.00 Build 0)  -->
<!DOCTYPE svg PUBLIC "-//W3C//DTD SVG 1.1//EN" "http://www.w3.org/Graphics/SVG/1.1/DTD/svg11.dtd">
<svg version="1.1" xmlns="http://www.w3.org/2000/svg" xmlns:xlink="http://www.w3.org/1999/xlink" x="0px" y="0px" width="30px"
	 height="30px" viewBox="0 0 30 30" enable-background="new 0 0 30 30" xml:space="preserve">
<g id="animals">
	<path fill="#201813" d="M15.568,13.878c-2.877,0-8.024,4.195-8.024,9.37c0,5.176,3.592,1.344,8.024,1.344
		c4.434,0,8.025,3.832,8.025-1.344C23.594,18.073,18.445,13.882,15.568,13.878z M18.575,12.28c1.499,0.402,3.163-0.953,3.718-3.026
		c0.556-2.073-0.209-4.081-1.706-4.481c-1.499-0.401-3.164,0.954-3.719,3.028C16.313,9.873,17.076,11.879,18.575,12.28z
		 M12.563,12.283c1.499-0.402,2.263-2.408,1.706-4.48c-0.557-2.075-2.221-3.43-3.718-3.029c-1.5,0.401-2.264,2.407-1.706,4.481
		C9.401,11.331,11.065,12.684,12.563,12.283z M8.313,12.977c-0.95-1.646-2.686-2.425-3.874-1.738
		c-1.19,0.686-1.383,2.576-0.435,4.224c0.951,1.647,2.684,2.424,3.876,1.737C9.069,16.514,9.265,14.625,8.313,12.977z
		 M26.702,11.236c-1.189-0.687-2.923,0.091-3.875,1.737c-0.949,1.646-0.758,3.539,0.432,4.226c1.19,0.687,2.924-0.092,3.876-1.738
		C28.083,13.812,27.892,11.922,26.702,11.236z"/>
</g>
<g id="book">
</g>
<g id="photography">
</g>
<g id="technology">
</g>
<g id="star-b">
</g>
<g id="experience">
</g>
<g id="mail">
</g>
<g id="star">
</g>
<g id="student">
</g>
<g id="telephone">
</g>
<g id="web">
</g>
</svg>
