<?xml version="1.0" encoding="utf-8"?>
<!-- Generator: Adobe Illustrator 16.0.0, SVG Export Plug-In . SVG Version: 6.00 Build 0)  -->
<!DOCTYPE svg PUBLIC "-//W3C//DTD SVG 1.1//EN" "http://www.w3.org/Graphics/SVG/1.1/DTD/svg11.dtd">
<svg version="1.1" xmlns="http://www.w3.org/2000/svg" xmlns:xlink="http://www.w3.org/1999/xlink" x="0px" y="0px" width="30px"
	 height="30px" viewBox="0 0 30 30" enable-background="new 0 0 30 30" xml:space="preserve">
<g id="experience">
	<g id="miu">
		<g id="Artboard-1" transform="translate(-539.000000, -335.000000)">
			<path id="business-suitcase-glyph" fill="#030104" d="M556,350h1.026H565v8.889c0,1.111-1.1,1.111-1.1,1.111h-19.8
				c0,0-1.1,0-1.1-1.111V350h8.005H552v0.991c0,0.558,0.443,1.009,1.009,1.009h1.981c0.559,0,1.01-0.443,1.01-1.009V350L556,350z
				 M556,349h1h8v-3.864c0-1.136-1.1-1.136-1.1-1.136h-19.8c0,0-1.1,0-1.1,1.136V349h8h1c0.005-0.562,0.455-1,1.009-1h1.981
				C555.553,348,555.995,348.447,556,349L556,349z M556.055,341.979h-4.043V344H551v-1.75c0-1.25,1.154-1.25,1.154-1.25h3.692
				c0,0,1.154,0,1.154,1.25V344h-0.945V341.979z M553,349v2h2v-2H553z"/>
		</g>
	</g>
</g>
<g id="mail">
</g>
<g id="star">
</g>
<g id="student">
</g>
<g id="telephone">
</g>
<g id="web">
</g>
</svg>
