<?xml version="1.0" encoding="utf-8"?>
<!-- Generator: Adobe Illustrator 16.0.0, SVG Export Plug-In . SVG Version: 6.00 Build 0)  -->
<!DOCTYPE svg PUBLIC "-//W3C//DTD SVG 1.1//EN" "http://www.w3.org/Graphics/SVG/1.1/DTD/svg11.dtd">
<svg version="1.1" xmlns="http://www.w3.org/2000/svg" xmlns:xlink="http://www.w3.org/1999/xlink" x="0px" y="0px" width="30px"
	 height="30px" viewBox="0 0 30 30" enable-background="new 0 0 30 30" xml:space="preserve">
<g id="experience">
</g>
<g id="mail">
</g>
<g id="star">
</g>
<g id="student">
</g>
<g id="telephone">
</g>
<g id="web">
	<path fill="#030104" d="M29.425,14.036C28.95,6.818,23.183,1.048,15.963,0.574V0.541h-1.927v0.033
		C6.818,1.048,1.049,6.818,0.573,14.036H0.541v1.929h0.032c0.476,7.217,6.245,12.985,13.463,13.46v0.034h1.927v-0.034
		c7.22-0.475,12.987-6.243,13.462-13.46h0.034v-1.929H29.425z M9.592,3.693c-0.931,1.238-1.704,2.79-2.268,4.56H4.436
		C5.693,6.291,7.479,4.705,9.592,3.693z M3.428,10.181h3.389c-0.258,1.218-0.422,2.512-0.474,3.856H2.505
		C2.607,12.68,2.927,11.382,3.428,10.181z M2.505,15.965h3.838c0.052,1.345,0.216,2.637,0.474,3.856H3.428
		C2.927,18.62,2.607,17.321,2.505,15.965z M4.436,21.748h2.887c0.563,1.77,1.335,3.322,2.27,4.56
		C7.479,25.296,5.693,23.711,4.436,21.748z M14.036,27.409c-1.982-0.531-3.689-2.659-4.725-5.661h4.725V27.409z M14.036,19.82H8.771
		c-0.271-1.201-0.443-2.499-0.499-3.855h5.765V19.82L14.036,19.82z M14.036,14.036H8.271c0.056-1.357,0.228-2.655,0.499-3.856h5.266
		V14.036L14.036,14.036z M14.036,8.252H9.312c1.035-3.002,2.742-5.13,4.725-5.658V8.252z M25.563,8.252H22.68
		c-0.565-1.77-1.337-3.322-2.272-4.56C22.519,4.705,24.307,6.292,25.563,8.252L25.563,8.252z M15.963,2.594
		c1.98,0.529,3.689,2.657,4.725,5.658h-4.725V2.594z M15.963,10.181h5.264c0.273,1.201,0.442,2.499,0.501,3.856h-5.765V10.181z
		 M15.963,15.965h5.765c-0.055,1.356-0.228,2.655-0.501,3.856h-5.264V15.965z M15.963,27.409v-5.661h4.725
		C19.652,24.751,17.943,26.879,15.963,27.409z M20.407,26.308c0.931-1.239,1.706-2.79,2.271-4.56h2.883
		C24.305,23.711,22.517,25.296,20.407,26.308L20.407,26.308z M26.571,19.82h-3.389c0.258-1.219,0.422-2.513,0.474-3.855h3.837
		C27.392,17.321,27.072,18.619,26.571,19.82z M23.656,14.036c-0.052-1.344-0.216-2.637-0.474-3.856h3.389
		c0.501,1.201,0.82,2.499,0.923,3.856H23.656z"/>
</g>
</svg>
