<?xml version="1.0" encoding="utf-8"?>
<!-- Generated by IcoMoon.io -->
<!DOCTYPE svg PUBLIC "-//W3C//DTD SVG 1.1//EN" "http://www.w3.org/Graphics/SVG/1.1/DTD/svg11.dtd">
<svg version="1.1" xmlns="http://www.w3.org/2000/svg" xmlns:xlink="http://www.w3.org/1999/xlink" width="24" height="32" viewBox="0 0 24 32">
<path d="M19.414 18.954c-0.506-0.527-1.117-0.809-1.764-0.809-0.642 0-1.258 0.277-1.785 0.804l-1.649 1.644c-0.136-0.073-0.271-0.141-0.402-0.209-0.188-0.094-0.365-0.183-0.517-0.277-1.545-0.981-2.949-2.26-4.295-3.914-0.652-0.825-1.091-1.519-1.409-2.223 0.428-0.391 0.825-0.799 1.211-1.19 0.146-0.146 0.292-0.297 0.438-0.444 1.096-1.096 1.096-2.515 0-3.611l-1.425-1.425c-0.162-0.162-0.329-0.329-0.485-0.496-0.313-0.324-0.642-0.658-0.981-0.971-0.506-0.501-1.112-0.767-1.748-0.767s-1.253 0.266-1.774 0.767c-0.005 0.005-0.005 0.005-0.010 0.010l-1.774 1.79c-0.668 0.668-1.049 1.482-1.133 2.427-0.125 1.524 0.324 2.943 0.668 3.872 0.845 2.281 2.108 4.394 3.992 6.659 2.286 2.73 5.036 4.885 8.178 6.404 1.2 0.569 2.803 1.242 4.593 1.357 0.11 0.005 0.224 0.010 0.329 0.010 1.206 0 2.218-0.433 3.011-1.294 0.005-0.010 0.016-0.016 0.021-0.026 0.271-0.329 0.585-0.626 0.913-0.945 0.224-0.214 0.454-0.438 0.678-0.673 0.517-0.538 0.788-1.164 0.788-1.806 0-0.647-0.277-1.268-0.804-1.79l-2.865-2.876z"></path>
</svg>
