<?xml version="1.0" encoding="utf-8"?>
<!-- Generated by IcoMoon.io -->
<!DOCTYPE svg PUBLIC "-//W3C//DTD SVG 1.1//EN" "http://www.w3.org/Graphics/SVG/1.1/DTD/svg11.dtd">
<svg version="1.1" xmlns="http://www.w3.org/2000/svg" xmlns:xlink="http://www.w3.org/1999/xlink" width="32" height="32" viewBox="0 0 32 32">
<path d="M31.962 14.933c-0.525-7.987-6.908-14.372-14.895-14.897v-0.036h-2.133v0.036c-7.987 0.525-14.372 6.91-14.897 14.897h-0.036v2.133h0.036c0.525 7.987 6.91 14.37 14.897 14.895v0.038h2.133v-0.038c7.987-0.525 14.37-6.908 14.895-14.895h0.038v-2.133h-0.038zM10.016 3.488c-1.030 1.37-1.886 3.087-2.509 5.045h-3.196c1.391-2.17 3.366-3.925 5.705-5.045zM3.196 10.667h3.75c-0.286 1.348-0.467 2.78-0.525 4.267h-4.247c0.113-1.502 0.467-2.938 1.022-4.267zM2.174 17.067h4.247c0.058 1.487 0.239 2.918 0.525 4.267h-3.75c-0.555-1.329-0.909-2.765-1.022-4.267zM4.311 23.467h3.194c0.623 1.958 1.478 3.676 2.511 5.045-2.338-1.12-4.314-2.874-5.705-5.045zM14.933 29.73c-2.193-0.587-4.081-2.942-5.227-6.263h5.227v6.263zM14.933 21.333h-5.826c-0.301-1.329-0.491-2.765-0.553-4.267h6.379v4.267zM14.933 14.933h-6.379c0.062-1.502 0.252-2.938 0.553-4.267h5.826v4.267zM14.933 8.533h-5.227c1.146-3.322 3.034-5.677 5.227-6.261v6.261zM27.689 8.533h-3.191c-0.625-1.958-1.478-3.676-2.513-5.045 2.336 1.12 4.314 2.876 5.705 5.045zM17.067 2.272c2.191 0.585 4.081 2.94 5.227 6.261h-5.227v-6.261zM17.067 10.667h5.824c0.303 1.329 0.489 2.765 0.555 4.267h-6.379v-4.267zM17.067 17.067h6.379c-0.062 1.502-0.252 2.938-0.555 4.267h-5.824v-4.267zM17.067 29.73v-6.263h5.227c-1.146 3.322-3.036 5.677-5.227 6.263zM21.984 28.512c1.030-1.372 1.888-3.087 2.513-5.045h3.191c-1.391 2.172-3.369 3.925-5.705 5.045zM28.804 21.333h-3.75c0.286-1.348 0.467-2.78 0.525-4.267h4.245c-0.111 1.502-0.465 2.938-1.020 4.267zM25.579 14.933c-0.058-1.487-0.239-2.918-0.525-4.267h3.75c0.555 1.329 0.909 2.765 1.022 4.267h-4.247z"></path>
</svg>
